<svg  viewBox="0 0 1228 1024" version="1.1">
  <path d="M103.5776 990.208C46.592 990.208 0 942.848 0 884.7872V105.4208C0 47.36 46.5408 0 103.5776 0h1020.3136c57.0368 0 103.5776 47.2576 103.5776 105.3696V884.736c0 58.0608-46.5408 105.3696-103.5776 105.3696H103.5776v0.0512z m0-897.28c-6.1952 0-11.4176 5.5808-11.4176 12.4928v779.4176c0 6.912 5.2224 12.5952 11.4176 12.5952h1020.3136c6.2464 0 11.4176-5.632 11.4176-12.5952V105.4208c0-6.912-5.1712-12.5952-11.4176-12.5952H103.5776v0.1024z m936.0896 410.112a49.3568 49.3568 0 0 1-47.4112 50.9952h-75.4688a49.3568 49.3568 0 0 1-47.4112-50.9952c0-28.16 21.1456-51.0464 47.4112-51.0464h75.4688c26.2656 0 47.4112 22.8864 47.4112 51.0464z m7.424 230.656a49.3568 49.3568 0 0 1-47.4112 50.9952H924.16a49.3568 49.3568 0 0 1-47.4112-50.9952c0-28.16 21.1968-51.0464 47.4112-51.0464h75.52c26.2144 0 47.4112 22.8864 47.4112 51.0464z m-13.9776-472.4224c0 27.9552-21.0944 50.688-47.104 50.688H218.2144a49.0496 49.0496 0 0 1-47.2576-50.688c0-28.0576 21.1456-50.7392 47.2576-50.7392h767.6928c26.112 0 47.2576 22.6816 47.2576 50.7392h-0.1024z m-309.1968 241.7664c0 27.9552-21.0944 50.688-47.2576 50.688H218.2656a49.0496 49.0496 0 0 1-47.2576-50.688c0-28.0576 21.1456-50.7904 47.2576-50.7904h458.3936c26.112 0 47.2576 22.7328 47.2576 50.7904z m-3.5328 230.2976c0 28.16-21.0432 50.7904-47.104 50.7904H214.7328a47.8208 47.8208 0 0 1-33.8432-15.36 50.3296 50.3296 0 0 1-13.3632-35.4304c0-27.9552 21.0944-50.688 47.2064-50.688h458.4448c26.112 0 47.2576 22.7328 47.2576 50.688h-0.1024z" fill="#ffffff" p-id="5362"></path>
</svg>