<?xml version="1.0" encoding="UTF-8"?>
<svg width="8px" height="8px" viewBox="0 0 8 8" version="1.1" xmlns="http://www.w3.org/2000/svg" xmlns:xlink="http://www.w3.org/1999/xlink">
    <!-- Generator: Sketch 54.1 (76490) - https://sketchapp.com -->
    <title>编组 12</title>
    <desc>Created with Sketch.</desc>
    <g id="页面-1" stroke="none" stroke-width="1" fill="none" fill-rule="evenodd">
        <g id="主播-直播间-弹幕设置时" transform="translate(-1173.000000, -590.000000)" fill="#3683FF">
            <g id="分组-12" transform="translate(1098.000000, 463.000000)">
                <g id="编组-12" transform="translate(75.000000, 127.000000)">
                    <path d="M4,8 C1.790861,8 0,6.209139 0,4 C0,1.790861 1.790861,0 4,0 C6.209139,0 8,1.790861 8,4 C8,6.209139 6.209139,8 4,8 Z M4,6.66666667 C5.47275933,6.66666667 6.66666667,5.47275933 6.66666667,4 C6.66666667,2.52724067 5.47275933,1.33333333 4,1.33333333 C2.52724067,1.33333333 1.33333333,2.52724067 1.33333333,4 C1.33333333,5.47275933 2.52724067,6.66666667 4,6.66666667 Z" id="形状结合"></path>
                    <circle id="椭圆形" cx="4" cy="4" r="1"></circle>
                </g>
            </g>
        </g>
    </g>
</svg>